<?xml version="1.0" encoding="utf-8"?>
<!-- Generator: Adobe Illustrator 23.0.2, SVG Export Plug-In . SVG Version: 6.00 Build 0)  -->
<svg version="1.1" id="Capa_1" xmlns="http://www.w3.org/2000/svg" xmlns:xlink="http://www.w3.org/1999/xlink" x="0px" y="0px"
	 viewBox="0 0 16 16" style="enable-background:new 0 0 16 16;" xml:space="preserve">
<style type="text/css">
	.st0{fill-rule:evenodd;clip-rule:evenodd;fill:#FFFFFF;}
	.st1{fill:#FFFFFF;}
</style>
<path class="st0" d="M6.5,12c3,0,5.5-2.5,5.5-5.5S9.5,1,6.5,1l0,0C3.5,1,1,3.5,1,6.5S3.5,12,6.5,12z M13,6.5c0,3.6-2.9,6.5-6.5,6.5
	S0,10.1,0,6.5S2.9,0,6.5,0S13,2.9,13,6.5z"/>
<path class="st1" d="M10.3,11.7c0,0,0.1,0.1,0.1,0.1l3.9,3.8c0.4,0.4,1,0.4,1.4,0s0.4-1,0-1.4l-3.8-3.9c0,0-0.1-0.1-0.1-0.1
	C11.3,10.9,10.9,11.3,10.3,11.7L10.3,11.7z"/>
<path class="st0" d="M6.5,3C6.8,3,7,3.2,7,3.5V6h2.5C9.8,6,10,6.2,10,6.5S9.8,7,9.5,7H7v2.5C7,9.8,6.8,10,6.5,10S6,9.8,6,9.5V7H3.5
	C3.2,7,3,6.8,3,6.5S3.2,6,3.5,6H6V3.5C6,3.2,6.2,3,6.5,3z"/>
</svg>
